<!-- <svg xmlns="http://www.w3.org/2000/svg">
  <path transform="translate(10 80)" fill="#24A148" d="M35.1,-54.8C44.3,-41.7,49.7,-29.8,56,-16.7C62.3,-3.6,69.5,10.7,64,18.7C58.6,26.8,40.3,28.6,27.5,32.9C14.7,37.3,7.4,44.1,-2.8,48C-13,51.8,-25.9,52.7,-30.6,45.7C-35.3,38.7,-31.7,23.9,-30.7,13.2C-29.7,2.5,-31.3,-4.1,-31.9,-12.9C-32.6,-21.7,-32.2,-32.8,-26.7,-47C-21.2,-61.3,-10.6,-78.8,1.2,-80.4C13,-82,26,-67.8,35.1,-54.8Z"  />
</svg> -->

<svg  xmlns="http://www.w3.org/2000/svg">
  <path transform="translate(10 50)" fill="#7FCFA4" d="M46.1,-62.3C60.5,-53.1,73.3,-40.5,80,-24.8C86.7,-9.2,87.3,9.7,81.5,26.2C75.7,42.7,63.6,56.8,49,65.2C34.4,73.5,17.2,76.1,-0.2,76.3C-17.6,76.6,-35.1,74.6,-47.3,65.4C-59.5,56.3,-66.3,40,-68.5,24.3C-70.8,8.7,-68.5,-6.4,-63.7,-20.5C-58.9,-34.6,-51.5,-47.7,-40.5,-58.1C-29.5,-68.5,-14.7,-76.1,0.6,-76.8C15.9,-77.6,31.8,-71.6,46.1,-62.3Z"  />
</svg>